<?xml version="1.0" encoding="UTF-8"?>
<!-- Generator: visioncortex VTracer 0.6.12 -->
<svg version="1.1" xmlns="http://www.w3.org/2000/svg" width="723" height="579" viewBox="0 0 723 579">
<path d="M0 0 C4.95 0 9.9 0 15 0 C15 7.92 15 15.84 15 24 C1.47 24.33 -12.06 24.66 -26 25 C-26.33 25.66 -26.66 26.32 -27 27 C-27.3 27.01 -27.3 27.01 -28.8 27.06 C-31.49 27.16 -34.18 27.26 -36.88 27.38 C-37.81 27.41 -38.75 27.44 -39.71 27.47 C-40.61 27.51 -41.51 27.55 -42.43 27.59 C-43.26 27.62 -44.08 27.65 -44.94 27.68 C-47 28 -47 28 -49 30 C-50.97 30.32 -50.97 30.32 -53.35 30.41 C-53.78 30.43 -53.78 30.43 -55.93 30.53 C-56.82 30.56 -57.71 30.59 -58.62 30.62 C-59.52 30.66 -60.42 30.7 -61.34 30.74 C-63.56 30.84 -65.78 30.92 -68 31 C-68.33 31.66 -68.66 32.32 -69 33 C-71.43 33.34 -71.43 33.34 -74.44 33.5 C-79.78 33.78 -79.78 33.78 -82 36 C-84.81 36.32 -87.57 36.46 -90.39 36.57 C-91.93 36.65 -93.47 36.82 -95 37 C-95.33 37.66 -95.66 38.32 -96 39 C-97.78 39.34 -97.78 39.34 -99.94 39.5 C-103.78 39.78 -103.78 39.78 -106 42 C-107.78 42.37 -109.53 42.5 -111.34 42.66 C-113 43 -113 43 -115 45 C-116.78 45.37 -118.53 45.5 -120.34 45.66 C-122 46 -122 46 -124 48 C-125.69 48.34 -125.69 48.34 -127.56 48.5 C-128.7 48.66 -129.83 48.83 -131 49 C-131.33 49.66 -131.66 50.32 -132 51 C-133.98 51 -135.96 51 -138 51 C-138 51.99 -138 52.98 -138 54 C-139.98 54 -141.96 54 -144 54 C-144 54.99 -144 55.98 -144 57 C-145.98 57 -147.96 57 -150 57 C-150.33 57.99 -150.66 58.98 -151 60 C-151.54 60.03 -151.54 60.03 -154.25 60.19 C-158.42 60.74 -159.43 62.77 -162 66 C-165.25 66.31 -165.25 66.31 -168 66 C-168 66.99 -168 67.98 -168 69 C-169.98 69 -171.96 69 -174 69 C-174 69.99 -174 70.98 -174 72 C-175.98 72 -177.96 72 -180 72 C-180.31 72.62 -180.62 73.24 -180.94 73.88 C-181.62 75.25 -182.31 76.62 -183 78 C-184.98 78 -186.96 78 -189 78 C-189.29 78.62 -189.58 79.24 -189.88 79.88 C-191 82 -191 82 -193 84 C-193.6 84.1 -194.2 84.21 -194.81 84.31 C-198.02 85.32 -199.77 87.6 -202 90 C-203.51 91.59 -205.03 93.18 -206.56 94.75 C-207.31 95.53 -208.05 96.31 -208.82 97.11 C-210.98 98.99 -212.2 99.62 -215 100 C-215.05 100.38 -215.05 100.38 -215.28 102.29 C-216.13 105.48 -217.01 106.3 -219.56 108.31 C-223.43 111.48 -226.89 114.88 -230.34 118.5 C-232 120 -232 120 -234 120 C-233.92 120.93 -233.84 121.86 -233.75 122.81 C-234 126 -234 126 -235.88 127.88 C-238 129 -238 129 -240 129 C-239.9 129.91 -239.79 130.81 -239.69 131.75 C-240 135 -240 135 -242.44 137.06 C-243.28 137.7 -244.13 138.34 -245 139 C-245.81 141.75 -245.81 141.75 -246 144 C-246.99 144 -247.98 144 -249 144 C-249 146.97 -249 149.94 -249 153 C-249.99 153 -250.98 153 -252 153 C-252 155.97 -252 158.94 -252 162 C-252.99 162 -253.98 162 -255 162 C-255 173.88 -255 185.76 -255 198 C-254.01 198 -253.02 198 -252 198 C-252 200.97 -252 203.94 -252 207 C-251.01 207 -250.02 207 -249 207 C-249 208.98 -249 210.96 -249 213 C-248.01 213 -247.02 213 -246 213 C-245.84 213.81 -245.69 214.62 -245.53 215.46 C-243.8 220.62 -239.39 224.02 -235.56 227.69 C-234.79 228.45 -234.01 229.2 -233.21 229.99 C-231.77 231.39 -230.32 232.8 -228.87 234.19 C-227.7 235.33 -226.54 236.48 -225.42 237.66 C-223.51 239.46 -221.45 240.14 -219 241 C-219 241.66 -219 242.32 -219 243 C-217.02 243 -215.04 243 -213 243 C-213 243.99 -213 244.98 -213 246 C-211.02 246 -209.04 246 -207 246 C-206.67 246.66 -206.34 247.32 -206 248 C-204.24 248.26 -202.47 248.51 -200.69 248.66 C-199 249 -199 249 -197 251 C-194.69 251.34 -194.69 251.34 -192 251.5 C-187.22 251.78 -187.22 251.78 -185 254 C-182.46 254.25 -182.46 254.25 -179.21 254.26 C-178.61 254.26 -178.02 254.27 -177.41 254.27 C-175.45 254.28 -173.49 254.27 -171.53 254.27 C-170.17 254.27 -168.81 254.27 -167.45 254.27 C-164.6 254.27 -161.75 254.27 -158.9 254.26 C-155.24 254.25 -151.58 254.26 -147.92 254.27 C-145.11 254.28 -142.3 254.27 -139.49 254.27 C-138.15 254.27 -136.8 254.27 -135.45 254.27 C-133.56 254.28 -131.68 254.27 -129.79 254.26 C-128.72 254.26 -127.65 254.26 -126.54 254.25 C-124 254 -124 254 -122 252 C-120.03 251.68 -120.03 251.68 -117.65 251.59 C-116.8 251.55 -115.95 251.51 -115.07 251.47 C-114.63 251.45 -114.63 251.45 -112.38 251.38 C-111.48 251.34 -110.58 251.3 -109.66 251.26 C-107.44 251.16 -105.22 251.08 -103 251 C-102.67 250.34 -102.34 249.68 -102 249 C-99.16 248.6 -96.34 248.49 -93.47 248.34 C-92.65 248.23 -91.84 248.12 -91 248 C-90.67 247.34 -90.34 246.68 -90 246 C-87.94 245.61 -85.91 245.49 -83.81 245.34 C-83.21 245.23 -82.62 245.12 -82 245 C-81.67 244.34 -81.34 243.68 -81 243 C-79.29 242.9 -77.58 242.87 -75.88 242.88 C-72.35 242.65 -70.59 242.53 -67.93 240.16 C-66.79 238.7 -65.67 237.23 -64.57 235.75 C-63 234 -63 234 -59.56 233.5 C-58.72 233.66 -57.87 233.83 -57 234 C-56.67 233.01 -56.34 232.02 -56 231 C-55.34 231 -54.68 231 -54 231 C-54.1 230.09 -54.21 229.19 -54.31 228.25 C-54 225 -54 225 -51.56 222.94 C-50.72 222.3 -49.87 221.66 -49 221 C-48.19 218.25 -48.19 218.25 -48 216 C-47.01 216 -46.02 216 -45 216 C-45.08 215.07 -45.17 214.14 -45.25 213.19 C-45 210 -45 210 -43.12 208.12 C-41 207 -41 207 -39 207 C-39 205.02 -39 203.04 -39 201 C-38.01 201 -37.02 201 -36 201 C-36.08 200.07 -36.17 199.14 -36.25 198.19 C-36 195 -36 195 -34.12 193.12 C-32 192 -32 192 -30 192 C-30.08 191.07 -30.17 190.14 -30.25 189.19 C-30 186 -30 186 -28.12 184.12 C-26 183 -26 183 -24 183 C-24.08 182.07 -24.17 181.14 -24.25 180.19 C-24 177 -24 177 -22.12 175.12 C-20 174 -20 174 -18 174 C-18.14 173.13 -18.29 172.27 -18.44 171.38 C-17.86 166.93 -16.1 165.81 -12.73 163.1 C-11 162 -11 162 -9 162 C-9.17 161.15 -9.33 160.31 -9.5 159.44 C-8.91 155.35 -8.16 154.95 -5.06 152.44 C-4.33 151.9 -3.6 151.36 -2.85 150.81 C-0.56 148.57 -0.6 147.08 0 144 C1.74 142.09 1.74 142.09 3.88 140.38 C10.87 134.67 10.87 134.67 11.47 131.52 C12.12 128.41 13.04 127.68 15.5 125.75 C18.75 123.06 21.89 120.31 24.94 117.38 C25.69 116.66 26.44 115.95 27.21 115.21 C29 113 29 113 29.42 110.54 C30.1 107.55 30.75 106.95 33.14 105.12 C37.35 101.65 41.16 97.9 44.98 94.01 C45.61 93.37 46.24 92.74 46.88 92.08 C49.51 89.42 52.13 86.76 54.75 84.08 C56.67 82.11 58.61 80.15 60.55 78.2 C61.14 77.59 61.72 76.98 62.33 76.36 C62.61 76.08 62.61 76.08 64.01 74.66 C64.49 74.17 64.98 73.68 65.47 73.17 C67.28 71.79 68.81 71.52 71 71 C72.77 69.38 74.38 67.76 76 66 C78.01 63.91 80.04 61.83 82.06 59.75 C82.58 59.21 83.1 58.67 83.63 58.11 C84.13 57.59 84.64 57.08 85.16 56.55 C85.61 56.08 86.06 55.62 86.52 55.14 C88.3 53.77 89.84 53.52 92 53 C94.34 50.9 96.36 48.87 98.22 46.34 C99.41 44.73 100.49 43.31 102 42 C105.31 41.62 105.31 41.62 108 42 C108.31 41.38 108.62 40.76 108.94 40.12 C109.62 38.75 110.31 37.38 111 36 C112.98 36 114.96 36 117 36 C117.31 35.38 117.62 34.76 117.94 34.12 C118.62 32.75 119.31 31.38 120 30 C121.98 30 123.96 30 126 30 C126 29.01 126 28.02 126 27 C127.98 27 129.96 27 132 27 C132 26.01 132 25.02 132 24 C133.98 24 135.96 24 138 24 C138 23.01 138 22.02 138 21 C139.98 21 141.96 21 144 21 C144 20.01 144 19.02 144 18 C145.98 18 147.96 18 150 18 C150.33 17.01 150.66 16.02 151 15 C152.76 14.8 154.52 14.61 156.27 14.41 C158 14 158 14 160 12 C161.78 11.63 163.53 11.5 165.34 11.34 C167 11 167 11 169 9 C171.78 8.68 174.51 8.54 177.3 8.43 C181.8 8.2 181.8 8.2 184 6 C186.21 5.74 186.21 5.74 188.94 5.73 C189.43 5.73 189.43 5.73 191.9 5.73 C192.92 5.73 193.95 5.74 195 5.75 C196.02 5.74 197.05 5.73 198.1 5.73 C198.59 5.73 198.59 5.73 201.06 5.73 C201.96 5.74 202.86 5.74 203.79 5.74 C206 6 206 6 208 8 C208.85 8.16 209.69 8.33 210.56 8.5 C211.37 8.66 212.17 8.83 213 9 C213.33 9.66 213.66 10.32 214 11 C214.72 11.27 215.44 11.54 216.19 11.81 C219.73 13.31 222.62 14.93 225 18 C225.55 20.16 225.75 22.1 225.8 24.33 C225.86 24.88 225.93 25.43 226 26 C226.66 26.33 227.32 26.66 228 27 C228 31.95 228 36.9 228 42 C227.01 42 226.02 42 225 42 C225 45.96 225 49.92 225 54 C224.01 54 223.02 54 222 54 C222 55.98 222 57.96 222 60 C221.01 60 220.02 60 219 60 C219 61.98 219 63.96 219 66 C218.01 66 217.02 66 216 66 C216 67.98 216 69.96 216 72 C215.01 72 214.02 72 213 72 C213.04 72.46 213.04 72.46 213.25 74.81 C213 78 213 78 211.12 79.88 C209 81 209 81 207 81 C207.14 81.87 207.29 82.73 207.44 83.62 C206.86 88.07 205.1 89.19 201.73 91.9 C200 93 200 93 198 93 C198.16 93.85 198.33 94.69 198.5 95.56 C197.93 99.5 197.53 99.73 194.59 102.1 C189.47 106.4 184.78 111.08 180.07 115.8 C179.14 116.73 178.21 117.65 177.28 118.58 C175.36 120.51 173.43 122.43 171.51 124.36 C169.04 126.84 166.57 129.3 164.1 131.77 C162.19 133.68 160.28 135.58 158.38 137.49 C157.46 138.4 156.55 139.31 155.64 140.22 C154.37 141.49 153.11 142.76 151.84 144.03 C151.12 144.75 150.4 145.47 149.66 146.21 C148 148 148 148 147 150 C146.15 150.21 145.31 150.41 144.44 150.62 C139.54 152.07 136.26 156.26 133 160 C132.67 160.66 132.34 161.32 132 162 C131.15 162.21 130.31 162.41 129.44 162.62 C124.54 164.07 121.26 168.26 118 172 C117.67 172.66 117.34 173.32 117 174 C115.02 174 113.04 174 111 174 C110.71 174.62 110.42 175.24 110.12 175.88 C109 178 109 178 107 180 C106.4 180.1 105.8 180.21 105.19 180.31 C101.55 181.45 98.9 184.38 97.06 187.69 C96 189 96 189 93.06 189.94 C90 191 90 191 88.5 193.12 C88 193.74 87.51 194.36 87 195 C83.81 195.25 83.81 195.25 81 195 C80.69 195.62 80.38 196.24 80.06 196.88 C79.38 198.25 78.69 199.62 78 201 C76.02 201 74.04 201 72 201 C71.69 201.62 71.38 202.24 71.06 202.88 C70.38 204.25 69.69 205.62 69 207 C67.02 207 65.04 207 63 207 C63 207.99 63 208.98 63 210 C62.26 210.06 61.51 210.12 60.75 210.19 C58 211 58 211 56.06 213.56 C54 216 54 216 50.75 216.31 C50.3 216.26 50.3 216.26 48 216 C48 216.99 48 217.98 48 219 C46.02 219 44.04 219 42 219 C42 219.99 42 220.98 42 222 C40.02 222 38.04 222 36 222 C36 222.99 36 223.98 36 225 C34.02 225 32.04 225 30 225 C30 225.99 30 226.98 30 228 C28.02 228 26.04 228 24 228 C24 228.99 24 229.98 24 231 C22.02 231 20.04 231 18 231 C18 231.99 18 232.98 18 234 C16.02 234 14.04 234 12 234 C12 234.99 12 235.98 12 237 C10.02 237 8.04 237 6 237 C5.67 237.99 5.34 238.98 5 240 C3.21 240.2 1.42 240.39 -0.37 240.59 C-0.91 240.72 -1.45 240.86 -2 241 C-2.33 241.66 -2.66 242.32 -3 243 C-4.98 243 -6.96 243 -9 243 C-9 243.99 -9 244.98 -9 246 C-10.98 246 -12.96 246 -15 246 C-15 246.99 -15 247.98 -15 249 C-16.98 249 -18.96 249 -21 249 C-21 250.98 -21 252.96 -21 255 C-21.99 255 -22.98 255 -24 255 C-23.9 255.91 -23.79 256.81 -23.69 257.75 C-24 261 -24 261 -26.44 263.06 C-27.28 263.7 -28.13 264.34 -29 265 C-29.69 267.69 -29.69 267.69 -30 270 C-30.66 270.33 -31.32 270.66 -32 271 C-32.62 273.56 -32.62 273.56 -33 276 C-33.99 276 -34.98 276 -36 276 C-36 277.98 -36 279.96 -36 282 C-36.99 282 -37.98 282 -39 282 C-39 283.98 -39 285.96 -39 288 C-39.99 288 -40.98 288 -42 288 C-41.92 288.93 -41.83 289.86 -41.75 290.81 C-42 294 -42 294 -43.88 295.88 C-46 297 -46 297 -48 297 C-47.92 297.93 -47.83 298.86 -47.75 299.81 C-48 303 -48 303 -49.88 304.88 C-52 306 -52 306 -54 306 C-53.9 306.91 -53.79 307.81 -53.69 308.75 C-54 312 -54 312 -56.44 314.06 C-57.28 314.7 -58.13 315.34 -59 316 C-59.36 317.66 -59.7 319.33 -60 321 C-63.21 324 -63.21 324 -66 324 C-65.92 324.93 -65.83 325.86 -65.75 326.81 C-66 330 -66 330 -67.88 331.88 C-70 333 -70 333 -72 333 C-71.83 333.85 -71.67 334.69 -71.5 335.56 C-72.18 340.22 -74.33 341.58 -77.86 344.48 C-79.85 345.89 -81.79 346.98 -84 348 C-83.83 348.85 -83.67 349.69 -83.5 350.56 C-84.18 355.23 -86.31 356.47 -89.89 359.32 C-91.71 360.77 -93.28 362.25 -94.88 363.94 C-97 366 -97 366 -99 366 C-98.83 366.85 -98.67 367.69 -98.5 368.56 C-99.06 372.44 -99.29 372.57 -102.16 374.85 C-108.14 379.87 -113.58 385.43 -119.08 390.95 C-120.95 392.83 -122.83 394.7 -124.71 396.57 C-125.9 397.76 -127.09 398.95 -128.28 400.14 C-128.56 400.42 -128.56 400.42 -129.98 401.84 C-130.49 402.35 -131 402.87 -131.53 403.41 C-131.99 403.86 -132.44 404.31 -132.91 404.78 C-134 406 -134 406 -135 408 C-135.74 408.1 -136.49 408.21 -137.25 408.31 C-140.88 409.22 -142.59 411.31 -145 414 C-146.01 415.09 -147.03 416.18 -148.06 417.25 C-148.53 417.75 -148.99 418.25 -149.47 418.77 C-151.28 420.23 -152.76 420.46 -155 421 C-156.41 422.09 -156.41 422.09 -157.62 423.38 C-157.84 423.6 -157.84 423.6 -158.92 424.73 C-160 426 -160 426 -160.94 427.69 C-162 429 -162 429 -164.94 429.94 C-168 431 -168 431 -169.5 433.12 C-170 433.74 -170.49 434.36 -171 435 C-174.19 435.25 -174.19 435.25 -177 435 C-177.15 435.31 -177.15 435.31 -177.94 436.88 C-178.62 438.25 -179.31 439.62 -180 441 C-181.98 441 -183.96 441 -186 441 C-186 441.99 -186 442.98 -186 444 C-186.8 444.12 -187.61 444.25 -188.44 444.38 C-189.28 444.58 -190.13 444.79 -191 445 C-191.33 445.66 -191.66 446.32 -192 447 C-192.76 447.1 -193.53 447.21 -194.31 447.31 C-197 448 -197 448 -198.94 450.56 C-201 453 -201 453 -204.25 453.31 C-205.16 453.21 -206.06 453.11 -207 453 C-207 453.99 -207 454.98 -207 456 C-208.98 456 -210.96 456 -213 456 C-213.33 456.99 -213.66 457.98 -214 459 C-215.79 459.2 -217.58 459.39 -219.37 459.59 C-219.91 459.72 -220.45 459.86 -221 460 C-221.33 460.66 -221.66 461.32 -222 462 C-223.98 462 -225.96 462 -228 462 C-228.33 462.99 -228.66 463.98 -229 465 C-230.76 465.2 -232.52 465.39 -234.27 465.59 C-236 466 -236 466 -238 468 C-239.69 468.34 -239.69 468.34 -241.56 468.5 C-242.7 468.66 -243.83 468.83 -245 469 C-245.33 469.66 -245.66 470.32 -246 471 C-247.98 471 -249.96 471 -252 471 C-252.33 471.99 -252.66 472.98 -253 474 C-253.7 474.05 -254.4 474.1 -255.12 474.15 C-255.57 474.19 -255.57 474.19 -257.88 474.38 C-258.78 474.44 -259.68 474.51 -260.62 474.59 C-263 475 -263 475 -265 477 C-267.56 477.38 -270.1 477.51 -272.69 477.66 C-275 478 -275 478 -277 480 C-278.68 480.29 -278.68 480.29 -280.66 480.34 C-281.37 480.37 -282.08 480.4 -282.81 480.43 C-284.32 480.48 -285.82 480.52 -287.32 480.57 C-287.68 480.58 -287.68 480.58 -289.47 480.66 C-290.13 480.67 -290.78 480.69 -291.45 480.71 C-291.96 480.81 -292.47 480.9 -293 481 C-293.33 481.66 -293.66 482.32 -294 483 C-296.34 483.26 -298.59 483.42 -300.94 483.5 C-307.73 483.73 -307.73 483.73 -310 486 C-312.43 486.2 -314.74 486.27 -317.17 486.26 C-317.91 486.26 -318.65 486.27 -319.41 486.27 C-321.86 486.28 -324.3 486.27 -326.75 486.27 C-328.45 486.27 -330.14 486.27 -331.84 486.27 C-335.4 486.27 -338.95 486.27 -342.51 486.26 C-347.08 486.25 -351.65 486.26 -356.21 486.27 C-359.72 486.28 -363.22 486.27 -366.72 486.27 C-368.41 486.27 -370.09 486.27 -371.77 486.27 C-374.13 486.28 -376.48 486.27 -378.83 486.26 C-379.53 486.26 -380.23 486.27 -380.95 486.27 C-385.77 486.23 -385.77 486.23 -388 484 C-390.86 483.62 -393.69 483.49 -396.57 483.34 C-397.37 483.23 -398.17 483.12 -399 483 C-399.33 482.34 -399.66 481.68 -400 481 C-402.29 480.59 -402.29 480.59 -405.06 480.38 C-405.98 480.3 -406.9 480.23 -407.85 480.15 C-408.56 480.1 -409.27 480.05 -410 480 C-410.16 479.5 -410.16 479.5 -411 477 C-412.98 477 -414.96 477 -417 477 C-417.33 476.34 -417.66 475.68 -418 475 C-419.74 474.8 -421.47 474.61 -423.21 474.41 C-426 473.77 -427.31 472.22 -429 470 C-429 469.34 -429 468.68 -429 468 C-429.85 468.16 -430.69 468.33 -431.56 468.5 C-436.25 467.82 -437.48 465.63 -440.32 462.02 C-441.8 460.24 -443.03 459.13 -444.94 457.88 C-447 456 -447 456 -447.31 452.75 C-447.21 451.84 -447.11 450.94 -447 450 C-447.99 450 -448.98 450 -450 450 C-450 448.02 -450 446.04 -450 444 C-450.99 444 -451.98 444 -453 444 C-453 434.1 -453 424.2 -453 414 C-452.01 414 -451.02 414 -450 414 C-450 412.02 -450 410.04 -450 408 C-449.01 408 -448.02 408 -447 408 C-447.14 407.13 -447.29 406.27 -447.44 405.38 C-446.88 401.08 -445.54 399.8 -442.22 397.18 C-438.89 395.41 -435.76 395.27 -432.04 395.2 C-431.37 395.14 -430.69 395.07 -430 395 C-429.67 394.34 -429.34 393.68 -429 393 C-426.03 393 -423.06 393 -420 393 C-419.67 393.66 -419.34 394.32 -419 395 C-417.93 395.1 -416.86 395.21 -415.75 395.31 C-412.2 395.72 -410.57 396.93 -408.2 399.68 C-407 401 -407 401 -404.25 403 C-401.61 405.34 -401.46 406.6 -401 410 C-400.34 410.33 -399.68 410.66 -399 411 C-399 414.96 -399 418.92 -399 423 C-399.66 423.33 -400.32 423.66 -401 424 C-401.27 425.74 -401.27 425.74 -401.38 427.88 C-401.77 431.75 -401.77 431.75 -403.81 433.94 C-405.88 434.94 -407.77 435.46 -410 436 C-410.33 436.66 -410.66 437.32 -411 438 C-412.67 438.33 -414.33 438.67 -416 439 C-416.33 439.66 -416.66 440.32 -417 441 C-418.98 441 -420.96 441 -423 441 C-423 442.98 -423 444.96 -423 447 C-422.01 447 -421.02 447 -420 447 C-419.67 447.66 -419.34 448.32 -419 449 C-416.44 449.63 -416.44 449.63 -414 450 C-414 450.99 -414 451.98 -414 453 C-412.02 453 -410.04 453 -408 453 C-407.67 453.66 -407.34 454.32 -407 455 C-405.24 455.26 -403.47 455.51 -401.69 455.66 C-400 456 -400 456 -398 458 C-396.34 458.34 -396.34 458.34 -394.5 458.5 C-391.59 458.75 -391.2 458.8 -389 461 C-386.51 461.29 -386.51 461.29 -383.41 461.34 C-382.29 461.37 -381.18 461.4 -380.04 461.43 C-378.86 461.46 -377.68 461.48 -376.5 461.5 C-374.2 461.54 -371.9 461.59 -369.59 461.66 C-369.08 461.67 -369.08 461.67 -366.49 461.71 C-364 462 -364 462 -362 464 C-359.48 464.23 -359.48 464.23 -356.34 464.2 C-355.21 464.19 -354.09 464.18 -352.94 464.18 C-351.75 464.16 -350.56 464.14 -349.38 464.12 C-348.18 464.11 -346.98 464.11 -345.79 464.1 C-342.86 464.07 -339.93 464.04 -337 464 C-336.67 463.34 -336.34 462.68 -336 462 C-331.22 461.84 -331.22 461.84 -307 461 C-306.67 460.34 -306.34 459.68 -306 459 C-303.57 458.66 -303.57 458.66 -300.56 458.5 C-295.22 458.22 -295.22 458.22 -293 456 C-290.19 455.68 -287.43 455.54 -284.61 455.43 C-283.07 455.35 -281.53 455.18 -280 455 C-279.67 454.34 -279.34 453.68 -279 453 C-277.02 453 -275.04 453 -273 453 C-272.67 452.01 -272.34 451.02 -272 450 C-270.21 449.8 -268.42 449.61 -266.63 449.41 C-266.09 449.28 -265.55 449.14 -265 449 C-264.67 448.34 -264.34 447.68 -264 447 C-262.02 447 -260.04 447 -258 447 C-257.67 446.01 -257.34 445.02 -257 444 C-255.21 443.8 -253.42 443.61 -251.63 443.41 C-251.09 443.28 -250.55 443.14 -250 443 C-249.67 442.34 -249.34 441.68 -249 441 C-247.33 440.67 -245.67 440.33 -244 440 C-243.67 439.34 -243.34 438.68 -243 438 C-242.24 437.9 -241.47 437.79 -240.69 437.69 C-238 437 -238 437 -236.06 434.44 C-234 432 -234 432 -230.75 431.69 C-229.84 431.79 -228.94 431.89 -228 432 C-228 431.01 -228 430.02 -228 429 C-226.02 429 -224.04 429 -222 429 C-221.88 428.72 -221.88 428.72 -221.25 427.31 C-219.72 424.48 -218.28 422.28 -216 420 C-212.75 419.69 -212.75 419.69 -210 420 C-209.71 419.38 -209.42 418.76 -209.12 418.12 C-208 416 -208 416 -206 414 C-205.4 413.9 -204.8 413.79 -204.19 413.69 C-200.99 412.68 -199.21 410.4 -197 408 C-195.99 406.91 -194.97 405.83 -193.94 404.75 C-193.47 404.25 -193.01 403.75 -192.53 403.23 C-191 402 -191 402 -189.13 401.64 C-185.98 400.69 -184.23 398.32 -182 396 C-180.72 394.71 -179.44 393.42 -178.16 392.13 C-177.45 391.41 -176.73 390.69 -176 389.94 C-173.2 387.13 -170.41 384.32 -167.61 381.51 C-165.49 379.38 -163.37 377.24 -161.26 375.11 C-158.81 372.63 -156.35 370.17 -153.89 367.7 C-153.13 366.93 -152.37 366.16 -151.59 365.36 C-150.88 364.66 -150.18 363.95 -149.45 363.23 C-149.14 362.91 -149.14 362.91 -147.57 361.33 C-146 360 -146 360 -144 360 C-144.17 359.15 -144.33 358.31 -144.5 357.44 C-143.73 352.12 -140.05 350.21 -136 347 C-131.95 343.46 -129.88 341.42 -129 336 C-125.79 333 -125.79 333 -123 333 C-123.17 332.15 -123.33 331.31 -123.5 330.44 C-122.91 326.35 -122.16 325.95 -119.06 323.44 C-118.33 322.9 -117.6 322.36 -116.85 321.81 C-114.56 319.57 -114.61 318.07 -114 315 C-112.07 313.04 -110 311.5 -107.81 309.84 C-105.6 307.6 -105.47 306.06 -105 303 C-101.79 300 -101.79 300 -99 300 C-99.08 299.07 -99.17 298.14 -99.25 297.19 C-99 294 -99 294 -97.12 292.12 C-95 291 -95 291 -93 291 C-93.17 290.15 -93.33 289.31 -93.5 288.44 C-92.91 284.35 -92.16 283.95 -89.06 281.44 C-88.33 280.9 -87.6 280.36 -86.85 279.81 C-84.58 277.59 -84.47 276.08 -84 273 C-80.79 270 -80.79 270 -78 270 C-78 269.01 -78 268.02 -78 267 C-79.79 267.11 -81.58 267.24 -83.38 267.38 C-84.37 267.44 -85.37 267.51 -86.4 267.59 C-89 268 -89 268 -91 270 C-93.6 270.38 -96.17 270.51 -98.79 270.66 C-99.52 270.77 -100.25 270.88 -101 271 C-101.33 271.66 -101.66 272.32 -102 273 C-104.43 273.34 -104.43 273.34 -107.44 273.5 C-112.78 273.78 -112.78 273.78 -115 276 C-117.25 276.32 -117.25 276.32 -120.01 276.41 C-120.99 276.45 -121.98 276.49 -123 276.53 C-123.51 276.55 -123.51 276.55 -126.12 276.62 C-127.17 276.66 -128.21 276.7 -129.28 276.74 C-131.85 276.84 -134.43 276.92 -137 277 C-137.33 277.66 -137.66 278.32 -138 279 C-148.89 279 -159.78 279 -171 279 C-171.33 278.34 -171.66 277.68 -172 277 C-172.66 276.98 -173.31 276.96 -173.99 276.94 C-176.95 276.84 -179.91 276.74 -182.88 276.62 C-183.91 276.59 -184.94 276.56 -186 276.53 C-186.99 276.49 -187.98 276.45 -188.99 276.41 C-189.9 276.38 -190.81 276.35 -191.75 276.32 C-194 276 -194 276 -196 274 C-198.31 273.66 -198.31 273.66 -201 273.5 C-205.78 273.22 -205.78 273.22 -208 271 C-209.73 270.59 -209.73 270.59 -211.62 270.38 C-212.74 270.25 -213.85 270.13 -215 270 C-215.33 269.01 -215.66 268.02 -216 267 C-217.98 267 -219.96 267 -222 267 C-222 266.01 -222 265.02 -222 264 C-223.98 264 -225.96 264 -228 264 C-228.33 263.34 -228.66 262.68 -229 262 C-230.64 261.28 -232.31 260.61 -234 260 C-234 259.34 -234 258.68 -234 258 C-234.91 258.1 -235.81 258.21 -236.75 258.31 C-240 258 -240 258 -242.06 255.62 C-242.7 254.76 -243.34 253.89 -244 253 C-244.77 252.7 -245.54 252.41 -246.34 252.11 C-249.51 250.79 -251.18 249.14 -253.57 246.68 C-253.98 246.27 -254.39 245.85 -254.82 245.42 C-256.11 244.1 -257.4 242.77 -258.69 241.44 C-259.99 240.1 -261.29 238.77 -262.59 237.44 C-263.77 236.24 -264.94 235.03 -266.11 233.83 C-268 232 -268 232 -270 231 C-270 229.02 -270 227.04 -270 225 C-270.99 225 -271.98 225 -273 225 C-273 223.02 -273 221.04 -273 219 C-273.99 219 -274.98 219 -276 219 C-276 217.02 -276 215.04 -276 213 C-276.99 213 -277.98 213 -279 213 C-279.02 212.72 -279.02 212.72 -279.15 211.29 C-279.19 210.92 -279.19 210.92 -279.38 209.06 C-279.41 208.7 -279.41 208.7 -279.59 206.85 C-279.72 206.24 -279.86 205.63 -280 205 C-280.66 204.67 -281.32 204.34 -282 204 C-282 189.15 -282 174.3 -282 159 C-281.34 158.67 -280.68 158.34 -280 158 C-279.59 155.5 -279.59 155.5 -279.38 152.44 C-279.3 151.43 -279.23 150.41 -279.15 149.37 C-279.1 148.59 -279.05 147.81 -279 147 C-278.01 147 -277.02 147 -276 147 C-276.06 146.4 -276.12 145.79 -276.18 145.17 C-276.32 142.7 -276.36 140.45 -276 138 C-273.56 135.75 -273.56 135.75 -271 134 C-270.31 131.31 -270.31 131.31 -270 129 C-269.34 128.67 -268.68 128.34 -268 128 C-267.38 125.44 -267.38 125.44 -267 123 C-266.01 123 -265.02 123 -264 123 C-264.08 122.07 -264.16 121.14 -264.25 120.19 C-264 117 -264 117 -262.12 115.12 C-260 114 -260 114 -258 114 C-258.16 113.15 -258.33 112.31 -258.5 111.44 C-257.94 107.57 -257.75 107.47 -254.89 105.21 C-250.69 101.7 -246.85 97.91 -243.02 94.01 C-242.39 93.37 -241.76 92.74 -241.12 92.08 C-238.49 89.42 -235.87 86.76 -233.25 84.08 C-231.33 82.11 -229.39 80.15 -227.45 78.2 C-226.86 77.59 -226.28 76.98 -225.67 76.36 C-225.12 75.8 -224.56 75.24 -223.99 74.66 C-223.75 74.42 -223.75 74.42 -222.53 73.17 C-220.72 71.79 -219.21 71.47 -217 71 C-215.59 69.91 -215.59 69.91 -214.38 68.62 C-213.95 68.18 -213.52 67.74 -213.08 67.28 C-212 66 -212 66 -211.06 64.19 C-210 63 -210 63 -206.88 62.81 C-205.93 62.87 -204.98 62.94 -204 63 C-203.69 62.38 -203.38 61.76 -203.06 61.12 C-202.38 59.75 -201.69 58.38 -201 57 C-199.02 57 -197.04 57 -195 57 C-194.67 56.01 -194.34 55.02 -194 54 C-193.4 53.88 -192.8 53.75 -192.19 53.62 C-190 53 -190 53 -188.12 50.44 C-186 48 -186 48 -182.75 47.69 C-181.84 47.79 -180.94 47.89 -180 48 C-180 47.01 -180 46.02 -180 45 C-179.2 44.88 -178.39 44.75 -177.56 44.62 C-176.72 44.42 -175.87 44.21 -175 44 C-174.67 43.34 -174.34 42.68 -174 42 C-172.33 41.67 -170.67 41.33 -169 41 C-168.67 40.34 -168.34 39.68 -168 39 C-166.02 39 -164.04 39 -162 39 C-162 38.01 -162 37.02 -162 36 C-160.02 36 -158.04 36 -156 36 C-156 35.01 -156 34.02 -156 33 C-154.02 33 -152.04 33 -150 33 C-149.67 32.01 -149.34 31.02 -149 30 C-147.21 29.8 -145.42 29.61 -143.63 29.41 C-143.09 29.28 -142.55 29.14 -142 29 C-141.67 28.34 -141.34 27.68 -141 27 C-139.02 27 -137.04 27 -135 27 C-134.67 26.01 -134.34 25.02 -134 24 C-133.64 23.98 -133.64 23.98 -131.85 23.85 C-130.93 23.78 -130.01 23.7 -129.06 23.62 C-128.15 23.56 -127.23 23.49 -126.29 23.41 C-125.53 23.28 -124.78 23.14 -124 23 C-123.67 22.34 -123.34 21.68 -123 21 C-121.02 21 -119.04 21 -117 21 C-116.67 20.01 -116.34 19.02 -116 18 C-115.64 17.98 -115.64 17.98 -113.85 17.85 C-112.93 17.78 -112.01 17.7 -111.06 17.62 C-110.15 17.56 -109.23 17.49 -108.29 17.41 C-107.53 17.28 -106.78 17.14 -106 17 C-105.67 16.34 -105.34 15.68 -105 15 C-102.57 14.66 -102.57 14.66 -99.56 14.5 C-94.22 14.22 -94.22 14.22 -92 12 C-89.19 11.68 -86.43 11.54 -83.61 11.43 C-82.07 11.35 -80.53 11.18 -79 11 C-78.67 10.34 -78.34 9.68 -78 9 C-75.57 8.66 -75.57 8.66 -72.56 8.5 C-67.22 8.22 -67.22 8.22 -65 6 C-62.48 5.68 -62.48 5.68 -59.34 5.59 C-58.21 5.55 -57.09 5.51 -55.94 5.47 C-54.75 5.44 -53.56 5.41 -52.38 5.38 C-51.18 5.34 -49.98 5.3 -48.79 5.26 C-45.86 5.16 -42.93 5.08 -40 5 C-39.67 4.34 -39.34 3.68 -39 3 C-26.46 2.67 -13.92 2.34 -1 2 C-0.67 1.34 -0.34 0.68 0 0 Z M178 30 C177.67 30.99 177.34 31.98 177 33 C174.36 33 171.72 33 169 33 C168.67 33.99 168.34 34.98 168 36 C166.02 36 164.04 36 162 36 C162 36.99 162 37.98 162 39 C160.02 39 158.04 39 156 39 C155.67 39.66 155.34 40.32 155 41 C153.26 41.2 151.53 41.39 149.79 41.59 C147 42.23 145.69 43.78 144 46 C144 46.66 144 47.32 144 48 C142.02 48 140.04 48 138 48 C138 48.99 138 49.98 138 51 C137.07 50.92 136.14 50.84 135.19 50.75 C132 51 132 51 130.12 52.88 C129 55 129 55 129 57 C128.13 56.86 127.27 56.71 126.38 56.56 C121.93 57.14 120.81 58.9 118.1 62.27 C117 64 117 64 117 66 C116.15 65.84 115.31 65.67 114.44 65.5 C109.12 66.27 107.2 69.95 104 74 C101.55 76.68 99.45 77.79 96 79 C96 79.66 96 80.32 96 81 C95.47 81.2 94.94 81.41 94.39 81.62 C90.98 83.59 88.51 86.26 85.77 89.07 C85.18 89.66 84.6 90.25 83.99 90.87 C82.11 92.76 80.24 94.66 78.38 96.56 C76.5 98.47 74.62 100.37 72.74 102.27 C71.57 103.45 70.4 104.63 69.24 105.82 C68.71 106.36 68.19 106.89 67.64 107.44 C67.18 107.91 66.72 108.38 66.24 108.87 C65 110 65 110 63 111 C63 112.98 63 114.96 63 117 C62.72 117.12 62.72 117.12 61.29 117.71 C58.48 119.29 56.6 121.24 54.38 123.56 C50.19 127.9 50.19 127.9 48 129 C48 130.98 48 132.96 48 135 C47.44 135.25 46.89 135.5 46.31 135.75 C43.48 137.28 41.28 138.72 39 141 C38.69 144.25 38.69 144.25 39 147 C37 148 35 149 33 150 C33 151.98 33 153.96 33 156 C31 157 29 158 27 159 C27 160.98 27 162.96 27 165 C25 166 23 167 21 168 C21 169.98 21 171.96 21 174 C20.01 174 19.02 174 18 174 C18 175.98 18 177.96 18 180 C16 181 14 182 12 183 C12 184.98 12 186.96 12 189 C11.69 189.14 11.69 189.14 10.12 189.88 C8 191 8 191 6 193 C5.88 195.62 5.88 195.62 6 198 C5.01 198 4.02 198 3 198 C3 199.98 3 201.96 3 204 C2.01 204 1.02 204 0 204 C0 205.98 0 207.96 0 210 C-2 211 -4 212 -6 213 C-6 213.99 -6 214.98 -6 216 C-3.83 216.3 -3.83 216.3 -1 216 C1 214.42 2.6 212.97 4.31 211.12 C4.77 210.66 5.22 210.2 5.69 209.73 C9 206.3 9 206.3 9 204 C9.85 204.16 10.69 204.33 11.56 204.5 C16.22 203.82 17.58 201.67 20.48 198.14 C21.89 196.15 22.98 194.21 24 192 C24.87 192.14 25.73 192.29 26.62 192.44 C31.07 191.86 32.19 190.1 34.9 186.73 C36 185 36 185 36 183 C36.87 183.14 37.73 183.29 38.62 183.44 C43.07 182.86 44.19 181.1 46.9 177.73 C48 176 48 176 48 174 C48.45 174.05 48.45 174.05 50.75 174.31 C54 174 54 174 56.06 171.62 C56.7 170.76 57.34 169.89 58 169 C60.75 167.69 60.75 167.69 63 167 C63 166.34 63 165.68 63 165 C63.28 164.89 63.28 164.89 64.69 164.31 C67.73 162.58 69.65 160.61 72 158 C72 157.34 72 156.68 72 156 C72.74 156.08 73.49 156.16 74.25 156.24 C77.83 155.93 78.66 154.78 81 152.12 C83.81 148.96 85.96 147.33 90 146 C90 145.34 90 144.68 90 144 C90.57 143.75 91.14 143.5 91.73 143.25 C94.35 141.81 96.15 140.12 98.25 138 C98.96 137.3 99.66 136.6 100.39 135.88 C102 134 102 134 102 132 C102.85 132.17 103.69 132.33 104.56 132.5 C109.88 131.73 111.8 128.05 115 124 C117.45 121.32 119.55 120.21 123 119 C123 118.34 123 117.68 123 117 C123.54 116.78 124.08 116.57 124.64 116.34 C127.84 114.52 130.18 112.11 132.75 109.5 C133.26 109 133.76 108.5 134.29 107.99 C138 104.25 138 104.25 138 102 C138.72 102.09 139.45 102.18 140.2 102.27 C143.87 101.92 145.42 100.25 147.85 97.7 C148.31 97.24 148.76 96.79 149.23 96.32 C150.73 94.81 152.22 93.28 153.7 91.75 C154.74 90.7 155.78 89.65 156.82 88.6 C159.57 85.83 162.29 83.05 165.01 80.27 C168.86 76.35 172.72 72.44 176.58 68.54 C178.64 66.46 180.69 64.37 182.74 62.28 C183.67 61.33 184.6 60.38 185.54 59.43 C185.96 58.99 186.39 58.56 186.82 58.11 C188.49 56.42 189.86 55.07 192 54 C192 52.02 192 50.04 192 48 C192.56 47.75 193.11 47.5 193.69 47.25 C196.48 45.74 198.69 44.18 201 42 C201.69 39.31 201.69 39.31 202 37 C202.66 36.67 203.32 36.34 204 36 C204 35.01 204 34.02 204 33 C201.88 30.88 200.51 30.07 197.53 29.66 C196.63 29.68 195.72 29.69 194.8 29.71 C193.82 29.72 192.84 29.73 191.83 29.74 C190.81 29.76 189.8 29.79 188.75 29.81 C188.23 29.82 188.23 29.82 185.62 29.85 C183.08 29.89 180.54 29.94 178 30 Z " fill="#c4940a" transform="translate(486,48)"/>
</svg>
